<svg width="64" height="64" viewBox="0 0 60 68" fill="none" xmlns="http://www.w3.org/2000/svg">
 <circle cx="32" cy="32" r="18" fill="rgba(182, 188, 188, 1)"/>
 <path d="M28.9543 19C25.1192 19 22 22.1431 22 26.0097V37.9904C22 41.8569 25.1192 45 28.9543 45H34.0474C37.8824 45 41 41.8569 41 37.9904V26.0097C41 22.1431 37.8824 19 34.0474 19H28.9543ZM28.9543 21.047H34.0474C36.7938 21.047 38.9697 23.2408 38.9697 26.0097V37.9904C38.9697 40.7593 36.7938 42.9548 34.0474 42.9548H28.9543C26.2079 42.9548 24.0303 40.7593 24.0303 37.9904V26.0097C24.0303 23.2408 26.2079 21.047 28.9543 21.047ZM31.4851 21.2473C31.2609 21.2513 31.0474 21.3446 30.8912 21.5068C30.735 21.6689 30.6488 21.8868 30.6514 22.1128V23.9392H29.5178L31.5033 27.5067L31.8978 26.7999L33.4954 23.9392H32.3486V22.1128C32.3499 21.9984 32.3284 21.8848 32.2854 21.7789C32.2425 21.673 32.1788 21.5767 32.0983 21.496C32.0178 21.4153 31.9221 21.3518 31.8167 21.309C31.7114 21.2663 31.5986 21.2453 31.4851 21.2473ZM25.4771 28.5811C25.2556 28.5969 25.0491 28.6995 24.9016 28.8668C24.7541 29.0342 24.6775 29.2531 24.6881 29.4767C24.6988 29.7003 24.7958 29.9109 24.9584 30.0633C25.121 30.2157 25.3364 30.2979 25.5583 30.2922H37.4417C37.5547 30.2948 37.6671 30.2745 37.7722 30.2327C37.8774 30.1908 37.9732 30.1282 38.054 30.0485C38.1349 29.9688 38.1991 29.8736 38.2429 29.7686C38.2868 29.6635 38.3094 29.5507 38.3094 29.4367C38.3094 29.3227 38.2868 29.2099 38.2429 29.1048C38.1991 28.9997 38.1349 28.9045 38.054 28.8248C37.9732 28.7452 37.8774 28.6825 37.7722 28.6407C37.6671 28.5988 37.5547 28.5786 37.4417 28.5811H25.5583C25.5313 28.5798 25.5042 28.5798 25.4771 28.5811Z" fill="white"/>
 </svg>
 