<svg width="64" height="64" viewBox="0 0 72 70" fill="none" xmlns="http://www.w3.org/2000/svg">
 <circle cx="32" cy="32" r="22" fill="white" fill-opacity="0.3"/>
 <path d="M20.6538 21C20.129 21 19.6159 21.1556 19.1794 21.4473C18.743 21.7389 18.4029 22.1533 18.202 22.6383C18.0011 23.1232 17.9486 23.6568 18.051 24.1716C18.1534 24.6864 18.4061 25.1593 18.7773 25.5304C19.1484 25.9015 19.6213 26.1543 20.1361 26.2567C20.6509 26.3591 21.1845 26.3065 21.6694 26.1057C22.1544 25.9048 22.5688 25.5647 22.8604 25.1282C23.152 24.6918 23.3077 24.1787 23.3077 23.6538C23.3077 22.95 23.0281 22.275 22.5304 21.7773C22.0327 21.2796 21.3577 21 20.6538 21ZM20.6538 29.8462C20.129 29.8462 19.6159 30.0018 19.1794 30.2934C18.743 30.585 18.4029 30.9995 18.202 31.4844C18.0011 31.9693 17.9486 32.5029 18.051 33.0177C18.1534 33.5325 18.4061 34.0054 18.7773 34.3766C19.1484 34.7477 19.6213 35.0005 20.1361 35.1029C20.6509 35.2053 21.1845 35.1527 21.6694 34.9518C22.1544 34.751 22.5688 34.4108 22.8604 33.9744C23.152 33.538 23.3077 33.0249 23.3077 32.5C23.3077 31.7962 23.0281 31.1211 22.5304 30.6234C22.0327 30.1258 21.3577 29.8462 20.6538 29.8462ZM20.6538 38.6923C20.129 38.6923 19.6159 38.8479 19.1794 39.1396C18.743 39.4312 18.4029 39.8456 18.202 40.3306C18.0011 40.8155 17.9486 41.3491 18.051 41.8639C18.1534 42.3787 18.4061 42.8516 18.7773 43.2227C19.1484 43.5939 19.6213 43.8466 20.1361 43.949C20.6509 44.0514 21.1845 43.9988 21.6694 43.798C22.1544 43.5971 22.5688 43.257 22.8604 42.8205C23.152 42.3841 23.3077 41.871 23.3077 41.3462C23.3077 40.6423 23.0281 39.9673 22.5304 39.4696C22.0327 38.9719 21.3577 38.6923 20.6538 38.6923ZM45.4231 39.5769H27.7308C27.4962 39.5769 27.2711 39.6701 27.1053 39.836C26.9394 40.0019 26.8462 40.2269 26.8462 40.4615V42.2308C26.8462 42.4654 26.9394 42.6904 27.1053 42.8563C27.2711 43.0222 27.4962 43.1154 27.7308 43.1154H45.4231C45.6577 43.1154 45.8827 43.0222 46.0486 42.8563C46.2145 42.6904 46.3077 42.4654 46.3077 42.2308V40.4615C46.3077 40.2269 46.2145 40.0019 46.0486 39.836C45.8827 39.6701 45.6577 39.5769 45.4231 39.5769ZM45.4231 21.8846H27.7308C27.4962 21.8846 27.2711 21.9778 27.1053 22.1437C26.9394 22.3096 26.8462 22.5346 26.8462 22.7692V24.5385C26.8462 24.7731 26.9394 24.9981 27.1053 25.164C27.2711 25.3299 27.4962 25.4231 27.7308 25.4231H45.4231C45.6577 25.4231 45.8827 25.3299 46.0486 25.164C46.2145 24.9981 46.3077 24.7731 46.3077 24.5385V22.7692C46.3077 22.5346 46.2145 22.3096 46.0486 22.1437C45.8827 21.9778 45.6577 21.8846 45.4231 21.8846ZM45.4231 30.7308H27.7308C27.4962 30.7308 27.2711 30.824 27.1053 30.9899C26.9394 31.1558 26.8462 31.3808 26.8462 31.6154V33.3846C26.8462 33.6192 26.9394 33.8442 27.1053 34.0101C27.2711 34.176 27.4962 34.2692 27.7308 34.2692H45.4231C45.6577 34.2692 45.8827 34.176 46.0486 34.0101C46.2145 33.8442 46.3077 33.6192 46.3077 33.3846V31.6154C46.3077 31.3808 46.2145 31.1558 46.0486 30.9899C45.8827 30.824 45.6577 30.7308 45.4231 30.7308Z" fill="#F6F6F6"/>
 </svg>
 