<svg width="44" height="44" viewBox="0 0 44 44" fill="none" xmlns="http://www.w3.org/2000/svg">
 <g filter="url(#filter0_d_83_1932)">
 <circle cx="22" cy="18" r="18" fill="white" fill-opacity="0.3"/>
 <path d="M19.375 17.75H24.625" stroke="white" stroke-width="2" stroke-linecap="round" stroke-linejoin="round"/>
 <path d="M15 25.975V9.525C15 9.23505 15.2351 9 15.525 9H25.7201C25.8593 9 25.9928 9.05531 26.0912 9.15377L28.8463 11.9087C28.9447 12.0072 29 12.1407 29 12.28V25.975C29 26.265 28.765 26.5 28.475 26.5H15.525C15.2351 26.5 15 26.265 15 25.975Z" stroke="white" stroke-width="2" stroke-linecap="round" stroke-linejoin="round"/>
 <path d="M25.4998 9V11.975C25.4998 12.2649 25.7348 12.5 26.0248 12.5H28.9998" stroke="white" stroke-width="2" stroke-linecap="round" stroke-linejoin="round"/>
 </g>
 <defs>
 <filter id="filter0_d_83_1932" x="0" y="0" width="44" height="44" filterUnits="userSpaceOnUse" color-interpolation-filters="sRGB">
 <feFlood flood-opacity="0" result="BackgroundImageFix"/>
 <feColorMatrix in="SourceAlpha" type="matrix" values="0 0 0 0 0 0 0 0 0 0 0 0 0 0 0 0 0 0 127 0" result="hardAlpha"/>
 <feOffset dy="4"/>
 <feGaussianBlur stdDeviation="2"/>
 <feComposite in2="hardAlpha" operator="out"/>
 <feColorMatrix type="matrix" values="0 0 0 0 0 0 0 0 0 0 0 0 0 0 0 0 0 0 0.25 0"/>
 <feBlend mode="normal" in2="BackgroundImageFix" result="effect1_dropShadow_83_1932"/>
 <feBlend mode="normal" in="SourceGraphic" in2="effect1_dropShadow_83_1932" result="shape"/>
 </filter>
 </defs>
 </svg>
 