<svg width="13" height="15" viewBox="0 0 13 15" fill="none" xmlns="http://www.w3.org/2000/svg">
<path d="M12.1292 0.898462H8.75996L8.49604 0.373426C8.44013 0.261179 8.35401 0.166759 8.24737 0.100789C8.14072 0.0348185 8.01779 -8.50155e-05 7.89239 4.92262e-06H4.68321C4.55809 -0.000476048 4.43537 0.0342974 4.32911 0.100341C4.22284 0.166385 4.13733 0.261028 4.08237 0.373426L3.81844 0.898462H0.449229C0.330086 0.898462 0.215823 0.945791 0.131576 1.03004C0.0473293 1.11428 0 1.22855 0 1.34769L0 2.24615C0 2.36529 0.0473293 2.47955 0.131576 2.5638C0.215823 2.64805 0.330086 2.69538 0.449229 2.69538H12.1292C12.2483 2.69538 12.3626 2.64805 12.4468 2.5638C12.5311 2.47955 12.5784 2.36529 12.5784 2.24615V1.34769C12.5784 1.22855 12.5311 1.11428 12.4468 1.03004C12.3626 0.945791 12.2483 0.898462 12.1292 0.898462ZM1.49369 13.1119C1.51511 13.454 1.66612 13.7751 1.91598 14.0099C2.16583 14.2446 2.49575 14.3753 2.83856 14.3753H9.73984C10.0827 14.3753 10.4126 14.2446 10.6624 14.0099C10.9123 13.7751 11.0633 13.454 11.0847 13.1119L11.6799 3.59383H0.898457L1.49369 13.1119Z" fill="black"/>
</svg>
