<svg width="38" height="34" viewBox="0 0 38 34" fill="none" xmlns="http://www.w3.org/2000/svg">
 <path d="M37.5723 29.0286C38.79 31.1393 37.2615 33.7778 34.8294 33.7778H3.17025C0.733432 33.7778 -0.788019 31.1353 0.427321 29.0286L16.2571 1.58234C17.4754 -0.529361 20.5268 -0.525534 21.7429 1.58234L37.5723 29.0286ZM19 23.3542C17.324 23.3542 15.9653 24.7129 15.9653 26.3889C15.9653 28.0649 17.324 29.4236 19 29.4236C20.676 29.4236 22.0347 28.0649 22.0347 26.3889C22.0347 24.7129 20.676 23.3542 19 23.3542ZM16.1188 12.4459L16.6082 21.4181C16.6311 21.838 16.9782 22.1667 17.3987 22.1667H20.6014C21.0218 22.1667 21.3689 21.838 21.3918 21.4181L21.8812 12.4459C21.906 11.9924 21.5449 11.6111 21.0907 11.6111H16.9092C16.4551 11.6111 16.0941 11.9924 16.1188 12.4459Z" fill="#39494B"/>
 </svg>
 