<?xml version="1.0" encoding="utf-8"?>
<!-- Generator: Adobe Illustrator 28.0.0, SVG Export Plug-In . SVG Version: 6.00 Build 0)  -->
<svg version="1.1" id="Layer_1" xmlns="http://www.w3.org/2000/svg" xmlns:xlink="http://www.w3.org/1999/xlink" x="0px" y="0px"
	 viewBox="0 0 600 600" style="enable-background:new 0 0 600 600;" xml:space="preserve">
<style type="text/css">
	.st0{display:none;}
</style>
<g id="Layer_1_00000080186670762710677730000000234593131934766506_">
	<path d="M569,307.7c-2.2,5.5-8.1,4.5-12.8,5c-3,0.3-6.1,0.1-9.1,0.3c-22.6,0.9-26.7,4.7-26.9,27.2c-0.3,53.6-0.1,107.2-0.1,160.8
		c0,22.8-0.4,30.7-10.9,33.4H350.7c-8.2-2.9-11.7-9.8-11-22.1c0.7-13.4,0.4-26.8-0.2-40.2c-0.6-15.1,6.4-21.2,21-20.1
		c4.2,0.4,8.5,0.3,12.8,0c18-1.3,23.5-10.3,13.5-25.1c-9.2-13.6-6.5-19.7,8-25.4c20.4-8,40.3-17.3,60-26.9
		c18.3-8.9,20.5-15.4,9.3-32.6c-6.9-10.6-1.8-18.5,1.9-27.2c9.2-22.1,4.2-30.4-19.9-31.4c-10.5-0.4-20.9-0.3-27.1-11.2
		c-9.3-16.4-20.6-15.9-34.4-4.8c-5.7,4.6-11.8,15.1-19.4,10.2c-7.8-5.2,0-14.4,1.9-21.7c3.1-11.8,7.2-23.3,9.9-35.1
		c3.7-16.7-6.1-27.1-22.3-22.2c-15.2,4.7-23.2-0.3-28.6-13.6c-0.5-1.1-1.2-2.1-1.9-3.1c-16.7-28-27.4-28.5-42.7-0.2
		c-8,14.9-15.8,22.2-34.2,16.7c-14.8-4.5-23.1,6.9-18.6,23.8c5.4,20.4,11.9,40.6,18,60.8c-1,0.7-2.1,1.3-3.1,2
		c-9.1-6.9-18.2-13.9-27.3-20.8c-10.1-7.7-20.1-7-26.5,3.9c-7.2,12.1-17,15.4-30.3,15.6c-25.5,0.5-31,9.3-20,31.8
		c5.3,10.9,7,19.9-1.6,30.1c-9.7,11.5-4.2,20.8,7.5,26.3c21.4,10.2,43.1,19.9,65,29c12.9,5.4,19,10.5,9.6,25.4
		c-10,15.9-3.7,26.6,14.9,25.6c40.9-2.1,34.7,6.6,34.6,37.2c0,31.8,1.9,42.1-10.4,45.3h-168C81.2,532,79,525.4,79,509
		c-0.2-55.4,0-110.9-0.1-166.3c0-25.8-2.3-28-27.7-29.8c-5.8-0.4-13.4,1.6-16.2-5.3c-2.8-7,3.9-10.9,8.2-14.9
		c81.5-76,163.1-151.8,244.5-227.9c10.2-9.5,18-8.7,28,0.7C392,137.7,469,209.6,545.9,281.6c5.3,5,11,9.5,16.4,14.5
		C565.8,299.2,571.2,302,569,307.7z"/>
</g>
<g id="Layer_2_00000084512030374756613640000000811836966224793267_" class="st0">
</g>
</svg>
