<svg width="15" height="21" viewBox="0 0 15 21" fill="none" xmlns="http://www.w3.org/2000/svg">
<path d="M5.42683 0C2.43409 0 0 2.43282 0 5.42556V14.6987C0 17.6915 2.43409 20.1242 5.42683 20.1242H9.40122C12.394 20.1242 14.8268 17.6915 14.8268 14.6987V5.42556C14.8268 2.43282 12.394 0 9.40122 0H5.42683ZM5.42683 1.58436H9.40122C11.5444 1.58436 13.2424 3.28238 13.2424 5.42556V14.6987C13.2424 16.8419 11.5444 18.5412 9.40122 18.5412H5.42683C3.28365 18.5412 1.58434 16.8419 1.58434 14.6987V5.42556C1.58434 3.28238 3.28365 1.58436 5.42683 1.58436ZM7.40175 1.73947C7.2268 1.74255 7.06019 1.81472 6.9383 1.94025C6.81641 2.06577 6.74914 2.23442 6.7512 2.40937V3.823H5.86656L7.41596 6.58428L7.72379 6.03719L8.97054 3.823H8.07557V2.40937C8.07661 2.32078 8.05985 2.2329 8.02631 2.15089C7.99276 2.06889 7.94311 1.99442 7.88028 1.93196C7.81745 1.86949 7.74273 1.82028 7.66053 1.78722C7.57834 1.75415 7.49033 1.73791 7.40175 1.73947ZM2.7134 7.41588C2.54056 7.42807 2.37935 7.50746 2.26428 7.63701C2.14921 7.76656 2.08943 7.936 2.09771 8.10908C2.106 8.28216 2.18169 8.44511 2.30861 8.56308C2.43552 8.68104 2.60356 8.74464 2.77678 8.74027H12.05C12.1382 8.74224 12.2259 8.72657 12.3079 8.69418C12.39 8.66179 12.4648 8.61332 12.5279 8.55163C12.5909 8.48995 12.6411 8.4163 12.6753 8.33498C12.7095 8.25366 12.7271 8.1663 12.7271 8.07808C12.7271 7.98985 12.7095 7.90253 12.6753 7.82121C12.6411 7.73989 12.5909 7.6662 12.5279 7.60452C12.4648 7.54283 12.39 7.49436 12.3079 7.46197C12.2259 7.42958 12.1382 7.41391 12.05 7.41588H2.77678C2.75567 7.41487 2.73452 7.41487 2.7134 7.41588Z" fill="#39494B"/>
</svg>
