<svg width="34" height="26" viewBox="0 0 34 26" fill="none" xmlns="http://www.w3.org/2000/svg">
<path d="M33.1657 14.1119L22.2505 25.1649C21.276 26.1518 19.5867 25.461 19.5867 24.0465V17.7305H10.7506C9.88651 17.7305 9.19132 17.0265 9.19132 16.1515V9.83543C9.19132 8.9604 9.88651 8.25642 10.7506 8.25642H19.5867V1.9404C19.5867 0.532459 21.2695 -0.164935 22.2505 0.821943L33.1657 11.875C33.77 12.4934 33.77 13.4935 33.1657 14.1119ZM13.3495 24.836V22.2043C13.3495 21.7701 12.9986 21.4148 12.5698 21.4148H7.11224C5.96225 21.4148 5.03316 20.474 5.03316 19.3095V6.67742C5.03316 5.5129 5.96225 4.57208 7.11224 4.57208H12.5698C12.9986 4.57208 13.3495 4.2168 13.3495 3.78258V1.1509C13.3495 0.716676 12.9986 0.3614 12.5698 0.3614H7.11224C3.66876 0.3614 0.875 3.19045 0.875 6.67742V19.3095C0.875 22.7964 3.66876 25.6255 7.11224 25.6255H12.5698C12.9986 25.6255 13.3495 25.2702 13.3495 24.836Z" fill="black"/>
</svg>
