<svg width="18" height="14" viewBox="0 0 18 14" fill="none" xmlns="http://www.w3.org/2000/svg">
<path d="M16.9138 7.20321L11.1965 12.9928C10.686 13.5097 9.80116 13.1478 9.80116 12.4069V9.0986H5.17283C4.72021 9.0986 4.35607 8.72986 4.35607 8.27152V4.96321C4.35607 4.50487 4.72021 4.13613 5.17283 4.13613H9.80116V0.827812C9.80116 0.0903332 10.6826 -0.27496 11.1965 0.241964L16.9138 6.03152C17.2303 6.35546 17.2303 6.87927 16.9138 7.20321ZM6.5341 12.8205V11.442C6.5341 11.2145 6.35033 11.0285 6.12572 11.0285H3.26705C2.66469 11.0285 2.17803 10.5357 2.17803 9.92568V3.30905C2.17803 2.69908 2.66469 2.20628 3.26705 2.20628H6.12572C6.35033 2.20628 6.5341 2.02018 6.5341 1.79274V0.414272C6.5341 0.186826 6.35033 0.00073295 6.12572 0.00073295H3.26705C1.46337 0.00073295 0 1.48258 0 3.30905V9.92568C0 11.7521 1.46337 13.234 3.26705 13.234H6.12572C6.35033 13.234 6.5341 13.0479 6.5341 12.8205Z" fill="#39494B"/>
</svg>
