<svg width="15" height="13" viewBox="0 0 15 13" fill="none" xmlns="http://www.w3.org/2000/svg">
<path d="M1.40625 0C1.12812 0 0.856237 0.0824751 0.62498 0.236996C0.393723 0.391517 0.213481 0.611143 0.107045 0.868101C0.000609308 1.12506 -0.0272391 1.40781 0.0270213 1.6806C0.0812818 1.95338 0.215214 2.20395 0.411882 2.40062C0.608549 2.59729 0.859119 2.73122 1.1319 2.78548C1.40469 2.83974 1.68744 2.81189 1.9444 2.70546C2.20136 2.59902 2.42098 2.41878 2.5755 2.18752C2.73003 1.95626 2.8125 1.68438 2.8125 1.40625C2.8125 1.03329 2.66434 0.675604 2.40062 0.411881C2.1369 0.148158 1.77921 0 1.40625 0ZM1.40625 4.6875C1.12812 4.6875 0.856237 4.76998 0.62498 4.9245C0.393723 5.07902 0.213481 5.29864 0.107045 5.5556C0.000609308 5.81256 -0.0272391 6.09531 0.0270213 6.3681C0.0812818 6.64088 0.215214 6.89145 0.411882 7.08812C0.608549 7.28479 0.859119 7.41872 1.1319 7.47298C1.40469 7.52724 1.68744 7.49939 1.9444 7.39296C2.20136 7.28652 2.42098 7.10628 2.5755 6.87502C2.73003 6.64376 2.8125 6.37188 2.8125 6.09375C2.8125 5.72079 2.66434 5.3631 2.40062 5.09938C2.1369 4.83566 1.77921 4.6875 1.40625 4.6875ZM1.40625 9.375C1.12812 9.375 0.856237 9.45747 0.62498 9.612C0.393723 9.76652 0.213481 9.98614 0.107045 10.2431C0.000609308 10.5001 -0.0272391 10.7828 0.0270213 11.0556C0.0812818 11.3284 0.215214 11.579 0.411882 11.7756C0.608549 11.9723 0.859119 12.1062 1.1319 12.1605C1.40469 12.2147 1.68744 12.1869 1.9444 12.0805C2.20136 11.974 2.42098 11.7938 2.5755 11.5625C2.73003 11.3313 2.8125 11.0594 2.8125 10.7812C2.8125 10.4083 2.66434 10.0506 2.40062 9.78688C2.1369 9.52316 1.77921 9.375 1.40625 9.375ZM14.5313 9.84375H5.15625C5.03193 9.84375 4.9127 9.89314 4.82479 9.98104C4.73689 10.069 4.6875 10.1882 4.6875 10.3125V11.25C4.6875 11.3743 4.73689 11.4935 4.82479 11.5815C4.9127 11.6694 5.03193 11.7188 5.15625 11.7188H14.5313C14.6556 11.7188 14.7748 11.6694 14.8627 11.5815C14.9506 11.4935 15 11.3743 15 11.25V10.3125C15 10.1882 14.9506 10.069 14.8627 9.98104C14.7748 9.89314 14.6556 9.84375 14.5313 9.84375ZM14.5313 0.46875H5.15625C5.03193 0.46875 4.9127 0.518136 4.82479 0.606044C4.73689 0.693951 4.6875 0.81318 4.6875 0.9375V1.875C4.6875 1.99932 4.73689 2.11855 4.82479 2.20646C4.9127 2.29436 5.03193 2.34375 5.15625 2.34375H14.5313C14.6556 2.34375 14.7748 2.29436 14.8627 2.20646C14.9506 2.11855 15 1.99932 15 1.875V0.9375C15 0.81318 14.9506 0.693951 14.8627 0.606044C14.7748 0.518136 14.6556 0.46875 14.5313 0.46875ZM14.5313 5.15625H5.15625C5.03193 5.15625 4.9127 5.20564 4.82479 5.29354C4.73689 5.38145 4.6875 5.50068 4.6875 5.625V6.5625C4.6875 6.68682 4.73689 6.80605 4.82479 6.89396C4.9127 6.98186 5.03193 7.03125 5.15625 7.03125H14.5313C14.6556 7.03125 14.7748 6.98186 14.8627 6.89396C14.9506 6.80605 15 6.68682 15 6.5625V5.625C15 5.50068 14.9506 5.38145 14.8627 5.29354C14.7748 5.20564 14.6556 5.15625 14.5313 5.15625Z" fill="#39494B"/>
</svg>
