<?xml version="1.0" encoding="utf-8"?>
<!-- Generator: Adobe Illustrator 28.0.0, SVG Export Plug-In . SVG Version: 6.00 Build 0)  -->
<svg version="1.1" id="Layer_1" xmlns="http://www.w3.org/2000/svg" xmlns:xlink="http://www.w3.org/1999/xlink" x="0px" y="0px"
	 viewBox="0 0 64 64" style="enable-background:new 0 0 64 64;" xml:space="preserve">
<style type="text/css">
	.st0{fill:#39494B;}
	.st1{fill:#FFFFFF;}
</style>
<circle class="st0" cx="32" cy="32" r="30.9"/>
<path class="st1" d="M16.1,16.6c-0.7,0-1.5,0.2-2.1,0.6c-0.6,0.4-1.1,1-1.4,1.7c-0.3,0.7-0.4,1.4-0.2,2.2c0.1,0.7,0.5,1.4,1,1.9
	c0.5,0.5,1.2,0.9,1.9,1c0.7,0.1,1.5,0.1,2.2-0.2c0.7-0.3,1.3-0.8,1.7-1.4c0.4-0.6,0.6-1.3,0.6-2.1c0-1-0.4-1.9-1.1-2.6
	C18,16.9,17.1,16.6,16.1,16.6z M16.1,29c-0.7,0-1.5,0.2-2.1,0.6c-0.6,0.4-1.1,1-1.4,1.7c-0.3,0.7-0.4,1.4-0.2,2.2
	c0.1,0.7,0.5,1.4,1,1.9c0.5,0.5,1.2,0.9,1.9,1c0.7,0.1,1.5,0.1,2.2-0.2c0.7-0.3,1.3-0.8,1.7-1.4c0.4-0.6,0.6-1.3,0.6-2.1
	c0-1-0.4-1.9-1.1-2.6C18,29.4,17.1,29,16.1,29z M16.1,41.4c-0.7,0-1.5,0.2-2.1,0.6c-0.6,0.4-1.1,1-1.4,1.7c-0.3,0.7-0.4,1.4-0.2,2.2
	c0.1,0.7,0.5,1.4,1,1.9c0.5,0.5,1.2,0.9,1.9,1c0.7,0.1,1.5,0.1,2.2-0.2c0.7-0.3,1.3-0.8,1.7-1.4c0.4-0.6,0.6-1.3,0.6-2.1
	c0-1-0.4-1.9-1.1-2.6C18,41.8,17.1,41.4,16.1,41.4z M50.8,42.6H26c-0.3,0-0.6,0.1-0.9,0.4c-0.2,0.2-0.4,0.5-0.4,0.9v2.5
	c0,0.3,0.1,0.6,0.4,0.9c0.2,0.2,0.5,0.4,0.9,0.4h24.8c0.3,0,0.6-0.1,0.9-0.4c0.2-0.2,0.4-0.5,0.4-0.9v-2.5c0-0.3-0.1-0.6-0.4-0.9
	C51.5,42.8,51.2,42.6,50.8,42.6z M50.8,17.8H26c-0.3,0-0.6,0.1-0.9,0.4c-0.2,0.2-0.4,0.5-0.4,0.9v2.5c0,0.3,0.1,0.6,0.4,0.9
	c0.2,0.2,0.5,0.4,0.9,0.4h24.8c0.3,0,0.6-0.1,0.9-0.4c0.2-0.2,0.4-0.5,0.4-0.9V19c0-0.3-0.1-0.6-0.4-0.9
	C51.5,17.9,51.2,17.8,50.8,17.8z M50.8,30.2H26c-0.3,0-0.6,0.1-0.9,0.4c-0.2,0.2-0.4,0.5-0.4,0.9v2.5c0,0.3,0.1,0.6,0.4,0.9
	c0.2,0.2,0.5,0.4,0.9,0.4h24.8c0.3,0,0.6-0.1,0.9-0.4c0.2-0.2,0.4-0.5,0.4-0.9v-2.5c0-0.3-0.1-0.6-0.4-0.9
	C51.5,30.3,51.2,30.2,50.8,30.2z"/>
</svg>
