<?xml version="1.0" encoding="utf-8"?>
<!-- Generator: Adobe Illustrator 28.0.0, SVG Export Plug-In . SVG Version: 6.00 Build 0)  -->
<svg version="1.1" id="Layer_1" xmlns="http://www.w3.org/2000/svg" xmlns:xlink="http://www.w3.org/1999/xlink" x="0px" y="0px"
	 viewBox="0 0 64 64" style="enable-background:new 0 0 64 64;" xml:space="preserve">
<style type="text/css">
	.st0{fill:#39494B;}
	.st1{fill:#FFFFFF;stroke:#FFFFFF;stroke-width:0.75;stroke-miterlimit:10;}
</style>
<circle class="st0" cx="31.7" cy="32.3" r="30.9"/>
<path class="st1" d="M28.9,16.2c-4.7,0-8.5,3.8-8.5,8.5v14.6c0,4.7,3.8,8.5,8.5,8.5h6.2c4.7,0,8.5-3.8,8.5-8.5V24.7
	c0-4.7-3.8-8.5-8.5-8.5H28.9z M28.9,18.7h6.2c3.3,0,6,2.7,6,6v14.6c0,3.4-2.7,6-6,6h-6.2c-3.3,0-6-2.7-6-6V24.7
	C22.9,21.3,25.6,18.7,28.9,18.7z M32,18.9c-0.3,0-0.5,0.1-0.7,0.3C31.1,19.4,31,19.7,31,20v2.2h-1.4l2.4,4.3l0.5-0.9l1.9-3.5H33V20
	c0-0.1,0-0.3-0.1-0.4c-0.1-0.1-0.1-0.2-0.2-0.3c-0.1-0.1-0.2-0.2-0.3-0.2C32.3,18.9,32.1,18.9,32,18.9z M24.7,27.8
	c-0.3,0-0.5,0.1-0.7,0.3c-0.2,0.2-0.3,0.5-0.3,0.7c0,0.3,0.1,0.5,0.3,0.7c0.2,0.2,0.5,0.3,0.7,0.3h14.5c0.1,0,0.3,0,0.4-0.1
	c0.1-0.1,0.2-0.1,0.3-0.2c0.1-0.1,0.2-0.2,0.2-0.3c0.1-0.1,0.1-0.3,0.1-0.4c0-0.1,0-0.3-0.1-0.4c-0.1-0.1-0.1-0.2-0.2-0.3
	c-0.1-0.1-0.2-0.2-0.3-0.2c-0.1-0.1-0.3-0.1-0.4-0.1H24.7C24.7,27.8,24.7,27.8,24.7,27.8z"/>
</svg>
