<svg width="12" height="14" viewBox="0 0 12 14" fill="none" xmlns="http://www.w3.org/2000/svg">
<path d="M5.99991 6.60427C4.10613 6.60427 2.57129 5.12605 2.57129 3.30214C2.57129 1.47822 4.10613 0 5.99991 0C7.89369 0 9.42853 1.47822 9.42853 3.30214C9.42853 5.12605 7.89369 6.60427 5.99991 6.60427ZM3.59987 7.42981H4.0472C4.64185 7.69295 5.30347 7.84257 5.99991 7.84257C6.69635 7.84257 7.35529 7.69295 7.95262 7.42981H8.39995C10.3875 7.42981 12 8.98284 12 10.897V11.9702C12 12.6539 11.4241 13.2085 10.7143 13.2085H1.28555C0.575721 13.2085 -0.000180244 12.6539 -0.000180244 11.9702V10.897C-0.000180244 8.98284 1.61234 7.42981 3.59987 7.42981Z" fill="#39494B"/>
</svg>
