<svg width="24" height="26" viewBox="0 0 24 26" fill="none" xmlns="http://www.w3.org/2000/svg">
<path d="M12.3505 13.0267C8.71835 13.0267 5.7746 10.1915 5.7746 6.69333C5.7746 3.19516 8.71835 0.360001 12.3505 0.360001C15.9827 0.360001 18.9265 3.19516 18.9265 6.69333C18.9265 10.1915 15.9827 13.0267 12.3505 13.0267ZM7.74738 14.61H8.60533C9.74584 15.1147 11.0148 15.4017 12.3505 15.4017C13.6863 15.4017 14.9501 15.1147 16.0957 14.61H16.9537C20.7657 14.61 23.8584 17.5886 23.8584 21.26V23.3183C23.8584 24.6295 22.7538 25.6933 21.3924 25.6933H3.30862C1.9472 25.6933 0.842651 24.6295 0.842651 23.3183V21.26C0.842651 17.5886 3.93539 14.61 7.74738 14.61Z" fill="black"/>
</svg>
