<svg width="24" height="26" viewBox="0 0 24 26" fill="none" xmlns="http://www.w3.org/2000/svg">
 <path d="M12.3504 13.0265C8.71823 13.0265 5.77448 10.1914 5.77448 6.6932C5.77448 3.19502 8.71823 0.359863 12.3504 0.359863C15.9826 0.359863 18.9263 3.19502 18.9263 6.6932C18.9263 10.1914 15.9826 13.0265 12.3504 13.0265ZM7.74725 14.6099H8.60521C9.74572 15.1145 11.0147 15.4015 12.3504 15.4015C13.6861 15.4015 14.9499 15.1145 16.0956 14.6099H16.9536C20.7655 14.6099 23.8583 17.5885 23.8583 21.2599V23.3182C23.8583 24.6294 22.7537 25.6932 21.3923 25.6932H3.3085C1.94708 25.6932 0.842529 24.6294 0.842529 23.3182V21.2599C0.842529 17.5885 3.93527 14.6099 7.74725 14.6099Z" fill="black"/>
 </svg>
 