<svg width="27" height="26" viewBox="0 0 27 26" fill="none" xmlns="http://www.w3.org/2000/svg">
 <path d="M13.8167 0.359863C6.63178 0.359863 0.807617 6.03075 0.807617 13.0265C0.807617 20.0223 6.63178 25.6932 13.8167 25.6932C21.0015 25.6932 26.8257 20.0223 26.8257 13.0265C26.8257 6.03075 21.0015 0.359863 13.8167 0.359863ZM18.1332 18.6244C17.9287 18.8225 17.7141 19.0304 17.54 19.2005C17.3831 19.3537 17.2724 19.5427 17.2163 19.7475C17.1371 20.0366 17.0731 20.3288 16.9661 20.6092L16.0539 23.002C15.3321 23.1553 14.5851 23.2416 13.8167 23.2416V21.8431C13.9053 21.1986 13.4159 19.9912 12.6296 19.2255C12.3148 18.9191 12.1381 18.5033 12.1381 18.0697V16.4348C12.1381 15.8403 11.8092 15.2938 11.2746 15.0062C10.5209 14.6002 9.44866 14.0327 8.71428 13.6726C8.11208 13.3774 7.555 13.0015 7.05405 12.5617L7.01209 12.525C6.65385 12.2101 6.33578 11.8545 6.06474 11.4657C5.5727 10.7624 4.77118 9.60551 4.25029 8.85368C5.32406 6.52976 7.25915 4.66347 9.66373 3.64962L10.9232 4.26303C11.4813 4.53476 12.1381 4.13994 12.1381 3.53215V2.955C12.5572 2.88911 12.9837 2.84723 13.4175 2.8314L14.902 4.27683C15.2298 4.59605 15.2298 5.11344 14.902 5.43266L14.6559 5.67169L14.1136 6.19981C13.9499 6.35916 13.9499 6.61811 14.1136 6.77747L14.3596 7.01701C14.5232 7.17637 14.5232 7.43532 14.3596 7.59467L13.9399 8.00328C13.8611 8.07985 13.7543 8.12283 13.643 8.12279H13.1714C13.0623 8.12279 12.9574 8.16416 12.8787 8.23873L12.3584 8.73161C12.2946 8.79209 12.2522 8.87074 12.2373 8.9562C12.2224 9.04167 12.2358 9.12954 12.2755 9.20712L13.0933 10.8002C13.2328 11.0719 13.0298 11.3916 12.7182 11.3916H12.4224C12.3211 11.3916 12.2236 11.3559 12.1475 11.2915L11.6607 10.8798C11.5506 10.7868 11.4174 10.7233 11.2744 10.6955C11.1314 10.6677 10.9834 10.6767 10.845 10.7215L9.20998 11.2522C9.08515 11.2927 8.97659 11.3705 8.89967 11.4744C8.82275 11.5784 8.78138 11.7032 8.78142 11.8314C8.78142 12.0627 8.91571 12.2737 9.12815 12.3774L9.70936 12.6603C10.203 12.9009 10.7475 13.026 11.2993 13.026C11.8511 13.026 12.4843 14.4199 12.9779 14.6604H16.4793C16.9247 14.6604 17.3511 14.8325 17.6664 15.139L18.3845 15.8382C18.6845 16.1304 18.853 16.5267 18.8529 16.9399C18.8528 17.253 18.7892 17.563 18.6657 17.8521C18.5422 18.1411 18.3612 18.4036 18.1332 18.6244ZM22.6817 13.9587C22.378 13.8846 22.1131 13.7033 21.9394 13.4494L20.9963 12.0719C20.8583 11.8707 20.7846 11.6341 20.7846 11.3921C20.7846 11.1501 20.8583 10.9136 20.9963 10.7123L22.0239 9.21172C22.1456 9.03449 22.3124 8.89045 22.5086 8.79545L23.1894 8.46398C23.8987 9.83892 24.3078 11.3855 24.3078 13.0265C24.3078 13.4694 24.269 13.903 24.2123 14.331L22.6817 13.9587Z" fill="black"/>
 </svg>
 