<svg width="34" height="26" viewBox="0 0 34 26" fill="none" xmlns="http://www.w3.org/2000/svg">
 <path d="M33.1657 14.1118L22.2505 25.1648C21.276 26.1517 19.5867 25.4609 19.5867 24.0463V17.7303H10.7506C9.88651 17.7303 9.19132 17.0263 9.19132 16.1513V9.83529C9.19132 8.96026 9.88651 8.25629 10.7506 8.25629H19.5867V1.94027C19.5867 0.532321 21.2695 -0.165072 22.2505 0.821806L33.1657 11.8748C33.77 12.4933 33.77 13.4933 33.1657 14.1118ZM13.3495 24.8358V22.2042C13.3495 21.7699 12.9986 21.4147 12.5698 21.4147H7.11224C5.96225 21.4147 5.03316 20.4738 5.03316 19.3093V6.67728C5.03316 5.51277 5.96225 4.57194 7.11224 4.57194H12.5698C12.9986 4.57194 13.3495 4.21667 13.3495 3.78244V1.15077C13.3495 0.716539 12.9986 0.361263 12.5698 0.361263H7.11224C3.66876 0.361263 0.875 3.19031 0.875 6.67728V19.3093C0.875 22.7963 3.66876 25.6253 7.11224 25.6253H12.5698C12.9986 25.6253 13.3495 25.2701 13.3495 24.8358Z" fill="black"/>
 </svg>
 