<svg width="36" height="33" viewBox="0 0 36 33" fill="none" xmlns="http://www.w3.org/2000/svg">
 <path d="M35.4008 16.9442C35.2555 17.3119 34.866 17.2451 34.5557 17.2785C34.3576 17.2985 34.1529 17.2852 33.9549 17.2985C32.4627 17.3587 32.192 17.6128 32.1788 19.117C32.159 22.7006 32.1722 26.2841 32.1722 29.8677C32.1722 31.392 32.1458 31.9202 31.4526 32.1007H20.9879C20.4465 31.9068 20.2154 31.4455 20.2617 30.6231C20.3079 29.7273 20.2881 28.8314 20.2485 27.9355C20.2088 26.926 20.671 26.5181 21.6349 26.5917C21.9122 26.6184 22.1961 26.6117 22.48 26.5917C23.6684 26.5048 24.0316 25.903 23.3713 24.9136C22.7639 24.0043 22.9422 23.5965 23.8995 23.2154C25.2464 22.6805 26.5603 22.0588 27.8609 21.4169C29.0691 20.8219 29.2144 20.3873 28.4749 19.2374C28.0194 18.5287 28.3561 18.0005 28.6004 17.4189C29.2078 15.9413 28.8777 15.3864 27.2865 15.3196C26.5933 15.2928 25.9066 15.2995 25.4973 14.5708C24.8833 13.4743 24.1372 13.5077 23.2261 14.2499C22.8498 14.5574 22.447 15.2594 21.9452 14.9318C21.4303 14.5841 21.9452 13.9691 22.0707 13.481C22.2754 12.6921 22.5461 11.9232 22.7243 11.1343C22.9686 10.0178 22.3216 9.32249 21.252 9.65009C20.2485 9.96432 19.7203 9.63003 19.3637 8.74083C19.3307 8.66729 19.2845 8.60043 19.2383 8.53357C18.1357 6.66158 17.4293 6.62815 16.4191 8.5202C15.8909 9.51637 15.3759 10.0044 14.1611 9.63671C13.184 9.33586 12.636 10.098 12.9331 11.2279C13.2896 12.5918 13.7188 13.9423 14.1215 15.2928C14.0555 15.3396 13.9829 15.3797 13.9168 15.4265C13.316 14.9652 12.7152 14.4972 12.1144 14.0359C11.4476 13.5211 10.7873 13.5679 10.3648 14.2967C9.88942 15.1056 9.24239 15.3263 8.36428 15.3396C6.68069 15.3731 6.31756 15.9614 7.04382 17.4657C7.39374 18.1944 7.50598 18.7961 6.93818 19.4781C6.29776 20.2469 6.66088 20.8687 7.43335 21.2364C8.84625 21.9184 10.279 22.5669 11.7249 23.1753C12.5766 23.5363 12.9793 23.8773 12.3587 24.8734C11.6985 25.9365 12.1144 26.6518 13.3424 26.585C16.0428 26.4446 15.6334 27.0262 15.6268 29.0721C15.6268 31.1981 15.7523 31.8867 14.9402 32.1007H3.8483C3.19467 31.9402 3.04942 31.499 3.04942 30.4025C3.03621 26.6986 3.04942 22.9881 3.04281 19.2842C3.04281 17.5593 2.89096 17.4122 1.21397 17.2918C0.831037 17.2651 0.329261 17.3988 0.144396 16.9375C-0.0404689 16.4695 0.401886 16.2088 0.685786 15.9413C6.06667 10.8602 11.4542 5.79244 16.8285 0.704613C17.5019 0.0694707 18.0169 0.122956 18.6771 0.751413C23.7147 5.57849 28.7985 10.3855 33.8756 15.1992C34.2256 15.5335 34.6019 15.8344 34.9584 16.1687C35.1895 16.3759 35.546 16.5631 35.4008 16.9442Z" fill="black"/>
 </svg>
 